<svg width="12" height="12" viewBox="0 0 12 12" fill="none" xmlns="http://www.w3.org/2000/svg">
<path d="M9.49982 7.74995C9.04155 7.75033 8.60171 7.93046 8.27482 8.25162L3.66648 6.19829V5.80745L8.27482 3.74829C8.56346 4.03122 8.94114 4.20551 9.34371 4.24156C9.74628 4.27762 10.1489 4.17321 10.4832 3.94608C10.8176 3.71894 11.063 3.38309 11.1778 2.99555C11.2925 2.60801 11.2697 2.19269 11.113 1.82011C10.9563 1.44754 10.6754 1.14069 10.3182 0.951678C9.96092 0.762667 9.54924 0.703149 9.15308 0.783233C8.75691 0.863316 8.40067 1.07806 8.14488 1.391C7.88908 1.70394 7.74949 2.09577 7.74982 2.49995V2.69829L3.14148 4.75162C2.89553 4.50998 2.58367 4.34638 2.24505 4.28135C1.90644 4.21633 1.55617 4.25279 1.2382 4.38614C0.920233 4.5195 0.648747 4.74381 0.457821 5.03093C0.266895 5.31804 0.165039 5.65516 0.165039 5.99995C0.165039 6.34475 0.266895 6.68187 0.457821 6.96898C0.648747 7.2561 0.920233 7.48041 1.2382 7.61377C1.55617 7.74712 1.90644 7.78358 2.24505 7.71856C2.58367 7.65353 2.89553 7.48993 3.14148 7.24829L7.74982 9.30746V9.49995C7.74982 9.84607 7.85245 10.1844 8.04474 10.4722C8.23704 10.76 8.51035 10.9843 8.83012 11.1167C9.14989 11.2492 9.50176 11.2839 9.84122 11.2163C10.1807 11.1488 10.4925 10.9821 10.7373 10.7374C10.982 10.4927 11.1487 10.1808 11.2162 9.84136C11.2837 9.5019 11.2491 9.15003 11.1166 8.83026C10.9842 8.51049 10.7599 8.23718 10.4721 8.04488C10.1843 7.85259 9.84593 7.74995 9.49982 7.74995Z" fill="white"/>
</svg>
